<svg width="100" height="100" viewBox="0 0 100 100" fill="none" xmlns="http://www.w3.org/2000/svg">
<rect width="100" height="100" fill="white"/>
<path d="M50 64C47.2311 64 44.5243 63.1789 42.222 61.6406C39.9197 60.1022 38.1253 57.9157 37.0657 55.3576C36.0061 52.7994 35.7288 49.9845 36.269 47.2687C36.8092 44.553 38.1426 42.0584 40.1005 40.1005C42.0584 38.1426 44.553 36.8092 47.2687 36.269C49.9845 35.7288 52.7994 36.0061 55.3576 37.0657C57.9157 38.1253 60.1022 39.9197 61.6406 42.222C63.1789 44.5243 64 47.2311 64 50C64 53.713 62.525 57.274 59.8995 59.8995C57.274 62.525 53.713 64 50 64ZM50 38C47.6266 38 45.3066 38.7038 43.3332 40.0224C41.3598 41.3409 39.8217 43.2151 38.9135 45.4078C38.0052 47.6005 37.7676 50.0133 38.2306 52.3411C38.6936 54.6689 39.8365 56.8071 41.5147 58.4853C43.193 60.1635 45.3312 61.3064 47.6589 61.7694C49.9867 62.2325 52.3995 61.9948 54.5922 61.0866C56.7849 60.1783 58.6591 58.6402 59.9776 56.6668C61.2962 54.6935 62 52.3734 62 50C62 46.8174 60.7357 43.7652 58.4853 41.5147C56.2349 39.2643 53.1826 38 50 38V38Z" fill="black"/>
<path d="M54.59 56L49 50.41V41H51V49.58L56 54.59L54.59 56Z" fill="black"/>
<path fill-rule="evenodd" clip-rule="evenodd" d="M37.5 18.65V12.5H36.9375C34.9812 12.5 33.0875 12.8875 31.2562 13.6563C29.4336 14.4203 27.7856 15.5473 26.4125 16.9688C25.0762 18.3118 24.0278 19.9131 23.3313 21.675V21.6813C22.7112 23.3542 22.2957 25.096 22.0938 26.8688V26.8813C21.916 28.6733 21.8659 30.4758 21.9437 32.275C22.0187 34.0875 22.0563 35.9 22.0563 37.7063C22.0563 38.975 21.8062 40.1625 21.325 41.2813V41.2875C20.4077 43.4708 18.7002 45.2275 16.5438 46.2063C15.4441 46.6865 14.2562 46.9313 13.0562 46.925H12.5V53.075H13.0625C14.2812 53.075 15.4375 53.325 16.5375 53.8313L16.5438 53.8375C17.6563 54.325 18.6 54.9875 19.3875 55.825L19.4 55.8375C20.2125 56.65 20.8563 57.6188 21.3188 58.7438L21.325 58.7563C21.8125 59.8813 22.0563 61.0563 22.0563 62.2938C22.0563 64.1063 22.0187 65.9188 21.9437 67.725C21.8687 69.575 21.9188 71.3813 22.0938 73.1625V73.1687C22.3 74.9375 22.7125 76.6563 23.325 78.3188V78.325C23.9875 80.0312 25.0187 81.6 26.4125 83.0312C27.8062 84.4687 29.425 85.575 31.2562 86.3437C33.0875 87.1125 34.9812 87.5 36.9437 87.5H37.5V81.35H36.9375C35.6875 81.35 34.5188 81.1125 33.4188 80.6313C32.3577 80.1355 31.3912 79.4588 30.5625 78.6313C29.758 77.7748 29.105 76.7878 28.6312 75.7125C28.1687 74.5875 27.9438 73.4 27.9438 72.1313C27.9438 70.7063 27.9625 69.3 28.0125 67.9313C28.0625 66.5063 28.0625 65.1188 28.0125 63.775C27.9905 62.4353 27.8756 61.0988 27.6688 59.775C27.4699 58.4693 27.1175 57.1917 26.6187 55.9688C25.646 53.6023 24.0551 51.5408 22.0125 50C24.0574 48.46 25.6505 46.3984 26.625 44.0313C27.125 42.8313 27.4687 41.575 27.675 40.2688C27.8812 38.9563 27.9937 37.625 28.0187 36.2688C28.0687 34.8938 28.0687 33.5063 28.0187 32.1063C27.9687 30.7063 27.9438 29.2938 27.9438 27.8688C27.9329 26.0774 28.446 24.322 29.4198 22.8184C30.3937 21.3149 31.7858 20.1289 33.425 19.4063C34.5286 18.9002 35.7297 18.6421 36.9437 18.65H37.5V18.65ZM62.5 81.35V87.5H63.0625C65.0188 87.5 66.9125 87.1125 68.7437 86.3437C70.575 85.575 72.1938 84.4687 73.5875 83.0312C74.9813 81.5937 76.0125 80.0312 76.6688 78.325V78.3188C77.2938 76.6563 77.7 74.925 77.9063 73.1313V73.1188C78.0813 71.3688 78.1313 69.575 78.0563 67.725C77.9813 65.9125 77.9437 64.1 77.9437 62.2938C77.9437 61.025 78.1938 59.8375 78.675 58.7188V58.7125C79.5912 56.5285 81.2991 54.7715 83.4562 53.7938C84.5561 53.3142 85.7439 53.0694 86.9438 53.075H87.5V46.925H86.9375C85.7125 46.925 84.5562 46.675 83.4562 46.1688L83.45 46.1625C82.3769 45.7001 81.4093 45.0238 80.6063 44.175L80.5938 44.1625C79.7679 43.3305 79.1156 42.3426 78.675 41.2563V41.2438C78.1866 40.1285 77.9354 38.9238 77.9375 37.7063C77.9375 35.8938 77.975 34.0813 78.05 32.275C78.128 30.4612 78.0778 28.6442 77.9 26.8375V26.8313C77.6974 25.0715 77.284 23.3424 76.6688 21.6813V21.675C75.9704 19.9126 74.9198 18.3112 73.5812 16.9688C72.2081 15.5475 70.56 14.4205 68.7375 13.6563C66.9387 12.8923 65.0043 12.499 63.05 12.5H62.5V18.65H63.0625C64.3125 18.65 65.4813 18.8875 66.575 19.3688C67.6625 19.8813 68.6125 20.5438 69.4313 21.3688C70.225 22.2063 70.8688 23.1813 71.3625 24.2875C71.825 25.4125 72.05 26.6 72.05 27.8688C72.05 29.2938 72.0313 30.6938 71.9813 32.0688C71.9313 33.4938 71.9313 34.8813 71.9813 36.225C72.0063 37.6125 72.1187 38.9438 72.325 40.225C72.5312 41.5625 72.8812 42.825 73.375 44.0313C74.3498 46.3983 75.9428 48.4598 77.9875 50C75.9428 51.5402 74.3498 53.6017 73.375 55.9688C72.8799 57.1778 72.5276 58.4405 72.325 59.7313C72.1187 61.0438 72.0063 62.375 71.9813 63.7312C71.9307 65.1183 71.9307 66.5067 71.9813 67.8937C72.0313 69.2937 72.0563 70.7063 72.0563 72.1313C72.0663 73.9224 71.5529 75.6775 70.5791 77.1809C69.6054 78.6843 68.2137 79.8705 66.575 80.5938C65.4714 81.0998 64.2703 81.3579 63.0562 81.35H62.5V81.35Z" fill="black"/>
</svg>
